<?xml version="1.0" standalone="no"?>
<!DOCTYPE svg PUBLIC "-//W3C//DTD SVG 20010904//EN"
 "http://www.w3.org/TR/2001/REC-SVG-20010904/DTD/svg10.dtd">
<svg version="1.0" xmlns="http://www.w3.org/2000/svg"
 width="188.000000pt" height="196.000000pt" viewBox="0 0 188.000000 196.000000"
 preserveAspectRatio="xMidYMid meet">

<g transform="translate(0.000000,196.000000) scale(0.100000,-0.100000)"
fill="#000000" stroke="none">
<path d="M778 1828 c-37 -56 -74 -142 -112 -257 l-41 -125 -93 -13 c-176 -26
-299 -77 -324 -137 -17 -41 -13 -227 6 -308 25 -107 73 -194 146 -268 116
-117 204 -144 465 -145 190 0 245 8 343 51 56 24 150 106 182 159 18 28 26 33
77 38 108 12 161 34 219 92 41 41 56 65 70 110 29 102 5 225 -55 279 -32 29
-109 33 -159 7 l-42 -21 -34 34 c-32 31 -101 64 -172 82 -25 6 -26 9 -20 53
25 196 33 346 17 355 -5 4 -44 -17 -86 -45 l-76 -51 -117 8 -117 9 -31 58
c-31 58 -31 58 -46 35z m62 -238 c24 -24 25 -43 4 -64 -38 -39 -114 -22 -114
26 0 53 71 77 110 38z m258 -26 c52 -36 -3 -110 -65 -88 -17 5 -32 21 -38 38
-8 24 -6 31 14 47 28 23 59 24 89 3z m-161 -101 c2 -6 -5 -17 -17 -23 -18 -9
-25 -8 -41 6 -10 9 -16 21 -13 26 8 13 67 6 71 -9z m-321 -70 c-3 -10 -8 -36
-13 -58 l-7 -40 -6 35 c-5 33 -7 35 -40 32 -67 -5 -175 -32 -208 -52 -122 -74
121 -142 509 -142 l196 0 -5 -44 c-5 -51 9 -74 44 -74 33 0 92 57 108 105 13
36 21 42 72 63 98 38 106 65 28 101 -24 12 -46 21 -48 21 -8 0 -26 -63 -27
-94 -1 -29 -2 -28 -9 9 -8 40 5 125 20 125 4 0 33 -9 65 -20 64 -22 125 -63
125 -85 0 -25 -54 -65 -117 -86 -65 -21 -81 -33 -63 -44 13 -8 104 21 146 46
l32 19 5 -26 c7 -41 -11 -180 -34 -247 -52 -156 -147 -253 -295 -303 -66 -22
-103 -27 -219 -31 -244 -9 -388 31 -493 138 -94 95 -151 248 -152 403 l0 68
24 -16 c62 -40 357 -109 387 -91 20 13 6 24 -38 30 -171 22 -312 66 -353 110
-21 23 -22 26 -7 48 27 41 147 88 272 106 97 14 107 13 101 -6z m1013 -108
c56 -29 85 -153 57 -249 -30 -102 -110 -161 -243 -180 -37 -5 -43 -4 -43 11 0
32 17 45 66 54 66 12 133 56 156 101 25 47 27 138 5 172 -30 46 -82 46 -135 1
l-30 -25 -4 35 c-4 38 5 51 57 78 38 20 78 21 114 2z m-34 -102 c13 -13 16
-30 13 -79 -5 -73 -26 -104 -93 -135 -33 -16 -85 -25 -85 -16 0 1 6 35 14 75
24 125 102 205 151 155z"/>
<path d="M763 1583 c-17 -6 -16 -38 1 -53 19 -15 56 -9 69 12 21 32 -26 59
-70 41z"/>
<path d="M1019 1544 c-18 -22 1 -49 36 -49 35 0 54 27 36 49 -8 9 -24 16 -36
16 -12 0 -28 -7 -36 -16z"/>
<path d="M800 967 c-49 -16 -116 -85 -122 -128 -12 -75 40 -129 122 -129 101
0 190 76 190 162 0 83 -89 127 -190 95z m98 -25 c28 -19 -20 -62 -69 -62 -29
0 -74 -26 -98 -56 -20 -26 -21 -26 -21 -5 0 32 25 76 56 96 47 31 106 43 132
27z m45 -125 c-25 -43 -87 -77 -140 -77 -76 0 -44 50 41 66 23 4 54 20 75 40
42 38 54 23 24 -29z m-78 28 c-5 -2 -28 -8 -50 -14 -36 -9 -38 -9 -21 4 11 8
34 15 50 14 17 0 27 -2 21 -4z"/>
<path d="M540 1698 c0 -29 -8 -47 -35 -77 -38 -42 -43 -66 -20 -97 14 -18 14
-18 15 10 0 18 12 42 35 67 38 43 45 82 20 115 -13 18 -14 17 -15 -18z"/>
<path d="M370 1571 c-15 -28 -13 -41 13 -78 25 -37 32 -40 41 -16 4 10 -2 25
-15 39 -16 17 -20 30 -15 48 8 31 -9 35 -24 7z"/>
<path d="M302 409 c-35 -64 -36 -64 -62 -22 -49 75 -74 49 -75 -79 0 -87 18
-89 25 -3 3 36 10 66 15 68 6 1 19 -17 30 -40 11 -23 23 -45 27 -48 4 -4 20
19 35 51 l28 59 3 -87 c3 -83 12 -109 26 -72 3 9 6 44 6 79 0 122 -22 158 -58
94z"/>
<path d="M390 415 c0 -8 5 -15 10 -15 17 0 12 -136 -5 -150 -8 -7 -12 -16 -9
-21 7 -13 72 -10 113 4 40 14 58 44 20 33 -13 -4 -39 -9 -56 -13 -28 -5 -33
-3 -33 13 0 28 12 42 39 45 37 6 39 29 2 29 -28 0 -31 3 -31 31 0 29 2 30 38
29 55 -3 59 -1 38 15 -27 21 -126 21 -126 0z"/>
<path d="M581 406 c-26 -28 -37 -90 -22 -128 27 -71 138 -72 168 -1 31 75 -12
153 -85 153 -28 0 -45 -7 -61 -24z m114 -37 c20 -38 12 -83 -18 -104 -31 -22
-53 -19 -76 11 -42 53 -17 124 44 124 28 0 37 -6 50 -31z"/>
<path d="M740 415 c0 -8 4 -15 9 -15 4 0 11 -29 13 -65 6 -69 29 -118 51 -109
8 3 21 19 30 37 l15 32 7 -32 c9 -39 31 -61 47 -45 12 12 38 115 38 154 0 14
5 28 12 30 19 7 -1 28 -26 28 -30 0 -39 -10 -25 -27 12 -14 6 -103 -8 -126
-10 -16 -21 25 -22 81 -1 60 -19 50 -42 -22 -22 -73 -35 -88 -42 -49 -19 93
-19 113 -3 113 9 0 16 7 16 15 0 10 -11 15 -35 15 -24 0 -35 -5 -35 -15z"/>
<path d="M1083 415 c-56 -39 -51 -150 9 -181 35 -18 82 -13 110 13 10 9 18 13
18 9 0 -5 15 1 34 12 45 27 117 14 134 -24 17 -36 31 -29 29 16 -1 24 -6 40
-13 40 -11 0 -54 96 -54 120 0 6 -7 10 -15 10 -8 0 -15 -7 -15 -16 0 -29 -40
-84 -62 -84 -13 0 -18 -5 -15 -14 6 -15 -17 -40 -37 -41 -6 -1 -24 -7 -39 -15
-65 -32 -118 34 -84 106 14 28 22 34 47 34 17 0 40 -5 51 -10 14 -8 19 -7 19
3 0 37 -75 51 -117 22z m269 -98 c8 -17 7 -18 -14 -12 -31 10 -31 10 -17 37 9
17 13 19 17 8 3 -8 9 -23 14 -33z"/>
<path d="M1425 420 c-4 -6 1 -13 9 -16 13 -5 16 -23 16 -89 0 -46 4 -86 9 -89
11 -7 21 18 21 54 0 24 5 29 27 32 39 4 42 28 4 28 -28 0 -31 3 -31 30 0 30 1
30 50 28 l50 -2 0 -72 c0 -47 -4 -74 -12 -76 -24 -8 5 -28 40 -27 47 0 109 21
102 34 -5 11 -7 11 -62 0 -37 -7 -38 -7 -38 23 0 27 4 31 32 34 46 4 49 28 4
28 -34 0 -36 2 -36 31 0 31 0 32 45 27 32 -4 45 -2 45 7 0 7 -10 15 -22 18
-39 10 -247 7 -253 -3z"/>
</g>
</svg>
